<svg xmlns="http://www.w3.org/2000/svg" version="1.1" width="600px" height="600px" viewBox="0 0 200 200" style="overflow:hidden!important;"><g id="svga-group-wrapper"><g id="svga-group-backs-single"><path id="SvgjsPath10412" d="M0 0h200v200H0V0z" fill="#073c49" stroke-width="none" opacity="1"></path></g><g id="svga-group-humanwrap-move" transform="matrix(1,0,0,1,0,0)"><g id="svga-group-humanwrap"><g id="svga-group-hair-back-move" transform="matrix(1,0,0,1,0,0)"><g id="svga-group-hair-back"></g></g><g id="svga-group-humanbody-back"><path id="SvgjsPath10355" d="m170 180.3-27.3-6.9-18-9.9-1.5-28.2H76.8l-1.5 28.2-18 9.9-27.3 6.9-9.1 19.7-3 20h164.2l-3-20z" fill="#f0c7b1" stroke-width="none" opacity="1"></path><path id="SvgjsPath10356" d="m76.8 135.3-1.5 28.2-18 9.9-27.3 6.9-9.1 19.7-3 20h14.6v-20l2.7-17.7 23.8-6.4 24.7-8.3 3.5-32.3z" fill="#d19271" stroke-width="none" opacity="1"></path></g><g id="svga-group-chinshadow-single"><path id="SvgjsPath10351" d="m121.7 151.9 2.2-2.6-.7-14H76.8l-1 18.5 11.2 6.9h20.4z" fill="#c27b55" stroke-width="none" opacity="1"></path></g><g id="svga-group-humanbody-front"><path id="SvgjsPath10357" d="m92.8 168.3 2 7.9 6.9 4.6s-8.5-3-8.7-3.6c-.2-.6-.2-8.9-.2-8.9z" fill="#d19271" stroke-width="none" opacity="1"></path></g><g id="svga-group-clothes-single"><path id="SvgjsPath10240" d="m182.6 199.8-8.6-19.4-2.7-.8-22.8-6.6-15.1-6.2.2-3.4-2.4-4.9.2-3.4-2.7-7-4.9-1.7-6 5.9-15 2.9h-5.6l-15-2.9-6-5.9-4.9 1.7-2.7 7 .2 3.4-2.4 4.9.3 3.4-15.2 6.2-22.8 6.6-2.7.8-8.6 19.4-2.1 20.2h169.4z" fill="#3f82a4" stroke-width="none" opacity="1"></path><path id="SvgjsPath10241" d="m106 171.1 16-2.7 8.5-5.8-8.2 7.1-16.3 1.4zm57.4 39.7 4.4-18.3 5.4-10.9-6.4 10-4.7 18.4.1 10.1h1.8l-.6-9.3zm-33-38.1-10.2 7.3s-14.5 2.2-15.3 2.2-14.5-.9-14.5-.9l-.9-4.2.9-5.6h11.3L90.4 169l-1.3-2.4 2.7-8.9 29.4-4 6.1-6-3.6-1.2-5.9 5.8-15.1 2.9h-5.5l-15.1-2.9-5.9-5.8-4.9 1.6-2.8 7 .2 3.4-2.3 4.9.2 3.4-15.1 6.2-22.8 6.6-2.8.8-8.5 19.4-2.1 20.2h10.9l-.2-20.8 7.4-12.2 4 14.5 2.4 18-1.3-18.3-3.5-15.1 10.7-2.7 25.6-6.4 18 6 15.1 1.1 16.2-2.5 10.5-7.8 2.1-7-2.8 5.9zm-57.2-21.8 4.2-1.5-3.7 2-1.3 6.4.4 2.9-1.1-3.4 1.5-6.4zm-4.5 17.8.2-5.6 2.9-2.1-2.2 2.5-.3 5.3.4 3-1-3.1zm3.1 4 1 3.1-1.7-2.9-.1-4.9 4.2-4.4-3.5 4.8.1 4.3zm4.4-16.7 4.2-3.4-3.7 4.1-.6 3.9.3 4.2-1-4.5.8-4.3zm1.5 22.1-1.6-2.9-.1-4.4 2.6-3.5-1.9 3.6v3.9l1 3.3zm3.6-.5.8 2.5-1.5-2.2-.3-4.7 2.5-3.9-1.7 4.3.2 4zm-.3-18.2-.2 5.1.1 2.9-.9-3.5.1-4.8 3.6-5.2-2.7 5.5zm3.9 19.7-.3-4.7 2.2-4.4-1.3 4.4.3 4.8 1.1 2.5-2-2.6zm.2-14.5.1 4.4-.9-4.6 3.2-8.1-2.4 8.3zm10.9-6.8.3 7.5.2 4.2s.3-4.2.3-4.5-.8-7.2-.8-7.2zm-.3 14.3.4 5.1v4.3s.8-3.8.8-4.2-1.2-5.2-1.2-5.2zm10.8-14.9 1.4 6s.7 6.6.7 6.2.3-6.4.3-6.4l-2.4-5.8zm-.3 15.1.6 4-.2 5.3.8-5.3-1.2-4zm12.5-16.6c.3 0 1.3 5.4 1.3 5.4l.1 6.5.5-6.8-1.9-5.1zm2.2-.2 1.8 4.8-.3 5.5.9-5.7-2.4-4.6zm-1.6 16 1.1 4.1-.5 4.1 1-4.4-1.6-3.8zm9-5.8 1.4 2.2.4 2.7-.5 1.9 1-2.2-.5-3.1-1.8-1.5zm-2.9-14.4 2.3 3.7 1 4.6-.7 3.6 1.2-3.9-1.1-5-2.7-3z" fill="#2a7195" stroke-width="none" opacity="1"></path></g><g id="svga-group-head" transform="matrix(1,0,0,1,0,0)"><g id="svga-group-ears-left-move" transform="matrix(1,0,0,1,0,0)"><g id="svga-group-ears-left"><path id="SvgjsPath10250" d="M60.9 93s-5.5-3-7.7-3.9c0 0-3.9 5.4-5.1 7.2 0 0 3.1 14.7 3.9 17.3l5 6.5 5.4-1.7 4.2-14.2L60.9 93z" fill="#f0c7b1" stroke-width="none" opacity="1"></path><path id="SvgjsPath10251" d="M58.8 104.7c-.2-.4-6-10-6-10l-2.3 7.9 2.6-2.4 1.6 2.9s-.3 5-.2 5.5c0 .5 2.4 4.3 2.4 4.3l1.9-8.2z" fill="#d19271" stroke-width="none" opacity="1"></path><path id="SvgjsPath10252" d="m58.4 98-5.2-8.9c2.2.9 7.7 1.8 7.7 1.8l5.7 13.3-4.2 14.2-5.4 1.7 3.6-3.4L58.4 98z" fill="#e1ac8f" stroke-width="none" opacity="1"></path></g></g><g id="svga-group-ears-right-move" transform="matrix(1,0,0,1,0,0)"><g id="svga-group-ears-right"><path id="SvgjsPath10253" d="M139.1 93s5.5-3 7.7-3.9c0 0 3.9 5.4 5.1 7.2 0 0-3.1 14.7-3.9 17.3l-5 6.5-5.4-1.7-4.2-14.2 5.7-11.2z" fill="#f0c7b1" stroke-width="none" opacity="1"></path><path id="SvgjsPath10254" d="M141.2 104.7c.2-.4 6-10 6-10l2.3 7.9-2.6-2.4-1.6 2.9s.3 5 .2 5.5c0 .5-2.4 4.3-2.4 4.3l-1.9-8.2z" fill="#d19271" stroke-width="none" opacity="1"></path><path id="SvgjsPath10255" d="m141.6 98 5.2-8.9c-2.2.9-7.7 1.8-7.7 1.8l-5.7 13.3 4.2 14.2 5.4 1.7-3.6-3.4 2.2-18.7z" fill="#e1ac8f" stroke-width="none" opacity="1"></path></g></g><g id="svga-group-faceshape-wrap"><g id="svga-group-faceshape-single"><path id="SvgjsPath10334" d="M143.4 84.8c-.2-10.2-5.3-24.8-5.3-24.8-6.9-11.6-19.7-19.5-19.7-19.5-7.2-1.5-18.4-2.3-18.4-2.3s-11.1.8-18.4 2.3c0 0-12.8 7.9-19.7 19.5 0 0-5.1 14.5-5.3 24.8l1 27.1 6.5 21.2 11.4 13.2 14.3 8.8h20.5l14.3-8.8 11.4-13.2 6.5-21.2.9-27.1z" fill="#f0c7b1" stroke-width="none" opacity="1"></path><path id="SvgjsPath10335" d="M109.5 151.6H89.3l-12.1-8.1-8.3-12.9L63 111l-1.3-28.3 4.6-21.6 16.4-17.2 17.2-3.8 18.5.4c-7.2-1.5-18.4-2.3-18.4-2.3s-11.1.8-18.4 2.3c0 0-12.8 7.9-19.7 19.5 0 0-5.1 14.5-5.3 24.8l1 27.1 6.5 21.2 11.4 13.2 14.3 8.8h20.5l14.3-8.8 11.4-13.2-12.6 11.7-13.9 6.8z" fill="#d19271" stroke-width="none" opacity="1"></path><path id="SvgjsPath10336" d="m88.8 141 6.5-2.8h9.3l7.3 2.2-6.6-4H94.7z" fill="#e1ac8f" stroke-width="none" opacity="1"></path></g></g><g id="svga-group-mouth-single-move" transform="matrix(1,0,0,1,0,0)"><g id="svga-group-mouth-single"><path id="SvgjsPath10437" d="m82.7 123.9 1.5 4.2 10.2 9.1 13.4.1 8.6-8.4 1.1-5.2-17.4 4.4z" fill="#000000" stroke-width="none" opacity="1" transform="translate(0 2)"></path><path id="SvgjsPath10438" d="m100.1 128.1-17.4-4.2 1.9 4.1 15.4 3.5 16.1-2.8 1.4-5z" fill="#ffffff" stroke-width="none" opacity="1" transform="translate(0 2)"></path><path id="SvgjsPath10439" d="m81.8 123.6 18.3 4.8 18.8-5-19 3.3z" fill="#da7c87" stroke-width="none" opacity="1" transform="translate(0 2)"></path><path id="SvgjsPath10440" d="m117.4 121.1 1 2.4.2 2.7.7-2.4-.9-2.3-1-.4zm-34.9.5-.9 2.3.7 2.4.2-2.7 1-2.4-1 .4z" fill="#e1ac8f" stroke-width="none" opacity="1" transform="translate(0 2)"></path><path id="SvgjsPath10441" d="M96.6 140.1s1.4.8 1.6.8c.2 0 6.4-.1 6.4-.1l.7-.9-8.7.2z" fill="#d19271" stroke-width="none" opacity="1" transform="translate(0 2)"></path></g></g><g id="svga-group-eyes-left-move" transform="matrix(1,0,0,1,0,0)"><g id="svga-group-eyes-left"><g id="svga-group-eyesback-left"><path id="SvgjsPath10290" d="M90.5 99.6s-.5-5.6-1.8-7.4c-.2-.2-14.7.2-17.9.3L72 99l1.9 1.5c0 .1 15.6-.4 16.6-.9z" fill="#ffffff" stroke-width="none" opacity="1"></path></g><g id="svga-group-eyesiriswrapper-left" transform="matrix(1,0,0,1,0,0)"><g id="svga-group-eyesiriscontrol-left" transform="matrix(1,0,0,1,0,0)"><g id="svga-group-eyesiris-left"><path id="SvgjsPath10372" d="m76.76 97.53-.81-3.95 2.22-3.37 3.94-.81 3.37 2.22.81 3.95-2.22 3.36-3.95.81z" fill="#694340" stroke-width="none" opacity="1"></path><path id="SvgjsPath10373" d="m80 97.28-1.59-1.59v-2.24L80 91.87h2.24l1.58 1.58v2.24l-1.58 1.59z" fill="#000000" stroke-width="none" opacity="1"></path><path id="SvgjsPath10374" d="m85.71 91.46-3.55-2.34-4.16.85-2.34 3.55.85 4.16 3.55 2.34 4.16-.85 2.34-3.55-.85-4.16zm-4.66 5.99.22 1.79-.58.12v-1.91h.36zm.17 0h.39l.46 1.62-.63.13-.22-1.75zm.57 0h.42l.81 1.43-.78.16-.45-1.59zm.38-.35h-2.1l-1.48-1.48v-2.1l1.48-1.48h2.1l1.48 1.48v2.1l-1.48 1.48zm-4 1.04 1.11-1.34.26.26c-.26.52-.6 1.2-.75 1.49l-.62-.41zm.99-1.46-1.14 1.36-.54-.35 1.33-1.35.35.34zm.51.51.24.24-.28 1.67-.7-.46c.11-.2.32-.61.74-1.45zm-2.89-.88-.18-.86 1.64-.23v.41l-1.46.68zm1.46-1.78-1.85-.11-.12-.57 1.97.23v.45zm0 .18v.34l-1.67.23-.14-.68 1.81.11zm.11-1.44-1.63-.38.71-1.07 1.41.97-.49.48zm-.27-2.45c.17.18.57.53 1.45 1.28l-.57.57-1.44-.99.56-.86zm2.73.87c-.06-.38-.2-1.24-.27-1.7l.74-.15v1.85h-.47zm-.18 0h-.36l-.85-1.47.95-.2c.09.6.21 1.33.26 1.67zM84 93.77l1.58-.37.14.7-1.72.12v-.45zm0-.18v-.21l-.27-.27 1.55-1.2.27 1.33-1.55.35zm-.4-.61-.37-.37 1.29-1.31.67.44-1.59 1.24zm-.49-.49-.49-.49.73-1.47 1.02.67-1.26 1.29zm-.62-.62-.17-.17h-.27l.23-1.87.93.61-.72 1.43zm.7 4.7 1.25 1.32-.39.6-1.22-1.56.36-.36zm.13-.12.24-.24 1.49.78-.5.76-1.23-1.3zm.37-.37.31-.32v-.11c.34.09 1.04.29 1.62.46l-.47.72-1.46-.75zm.31-1.69 1.76-.11.13.64-1.89-.08v-.45zm-1.89-4.68-.25 1.98h-.42V89.8l.61-.13.06.04zm-2.87.55.83 1.43h-.14l-.28.28c-.54-.47-1.25-1.08-1.47-1.3l.15-.22.91-.19zm-2.63 2.78 1.63.38v.48l-2-.23-.01-.04.38-.59zm.2 3.45 1.47-.68.41.41-1.35 1.38-.34-.23-.19-.88zm2.98 2.72.29-1.76h.45v1.94l-.35.07-.39-.25zm3.41-.37-.82-1.46.33-.33 1.24 1.59-.04.06-.71.14zm2.51-2.88c-.58-.17-1.35-.39-1.72-.49v-.46l1.93.07.09.43-.3.45z" fill="#4a221e" stroke-width="none" opacity="1"></path><path id="SvgjsPath10375" d="m80.63 91.91-.97-.29-.72.7.23.97.97.29.72-.7z" fill="#ffffff" stroke-width="none" opacity="1"></path><path id="SvgjsPath10376" d="m82.79 96.11-.59-.34-.59.34v.68l.59.34.59-.34z" fill="#ffffff" stroke-width="none" opacity="1"></path></g></g></g><g id="svga-group-eyesfront-left"><path id="SvgjsPath10298" d="M67.1 89.3v11.9l7.9 8.4h11.2l7.9-8.4V89.3l-7.9-8.4H75l-7.9 8.4zm3.7 3.2c3.2-.1 17.7-.5 17.9-.3 1.3 1.8 1.8 7.4 1.8 7.4-1 .5-16.6 1-16.6 1L72 99l-1.2-6.5z" fill="#f0c7b1" stroke-width="none" opacity="1"></path><path id="SvgjsPath10299" d="m89.8 95.1.3 4.3-3.1.5-.3-.5-2.3.8h2.1l.7 1.2 4.1-.1z" fill="#e1ac8f" stroke-width="none" opacity="1"></path><path id="SvgjsPath10300" d="m90.3 98.1-1.9-5.3H71.1l.2 1.6-1.4-.5-.6-1.9 21.2-.2-.9.7 1.3 7.1z" fill="#000000" stroke-width="none" opacity="1"></path></g></g></g><g id="svga-group-eyes-right-move" transform="matrix(1,0,0,1,0,0)"><g id="svga-group-eyes-right"><g id="svga-group-eyesback-right"><path id="SvgjsPath10291" d="M109.5 99.6s.5-5.6 1.8-7.4c.2-.2 14.6.2 17.9.3L128 99l-1.9 1.5c0 .1-15.6-.4-16.6-.9z" fill="#ffffff" stroke-width="none" opacity="1"></path></g><g id="svga-group-eyesiriswrapper-right" transform="matrix(1,0,0,1,0,0)"><g id="svga-group-eyesiriscontrol-right" transform="matrix(1,0,0,1,0,0)"><g id="svga-group-eyesiris-right"><path id="SvgjsPath10377" d="m114.52 97.53-.81-3.95 2.22-3.37 3.95-.81 3.36 2.22.81 3.95-2.22 3.36-3.94.81z" fill="#694340" stroke-width="none" opacity="1"></path><path id="SvgjsPath10378" d="m117.76 97.28-1.58-1.59v-2.24l1.58-1.58H120l1.59 1.58v2.24L120 97.28z" fill="#000000" stroke-width="none" opacity="1"></path><path id="SvgjsPath10379" d="m123.47 91.46-3.55-2.34-4.16.85-2.34 3.55.85 4.16 3.55 2.34 4.16-.85 2.34-3.55-.85-4.16zm-4.66 5.99.22 1.79-.58.12v-1.91h.36zm.18 0h.39l.46 1.62-.63.13-.22-1.75zm.57 0h.42l.81 1.43-.78.16-.45-1.59zm.37-.35h-2.1l-1.48-1.48v-2.1l1.48-1.48h2.1l1.48 1.48v2.1l-1.48 1.48zm-4 1.04 1.11-1.34.26.26c-.26.52-.6 1.2-.75 1.49l-.62-.41zm.99-1.46-1.14 1.36-.54-.35 1.33-1.35.35.34zm.51.51.24.24-.28 1.67-.7-.46c.12-.2.32-.61.74-1.45zm-2.89-.88-.18-.86 1.64-.23v.41l-1.46.68zm1.46-1.78-1.85-.11-.12-.57 1.97.23v.45zm0 .18v.34l-1.67.23-.14-.68 1.81.11zm.11-1.44-1.63-.38.71-1.07 1.41.97-.49.48zm-.27-2.45c.17.18.57.53 1.45 1.28l-.57.57-1.44-.99.56-.86zm2.73.87c-.06-.38-.2-1.24-.27-1.7l.74-.15v1.85h-.47zm-.18 0h-.36l-.85-1.47.95-.2c.09.6.21 1.33.26 1.67zm3.37 2.08 1.58-.37.14.7-1.72.11v-.44zm0-.18v-.21l-.27-.27 1.55-1.2.27 1.33-1.55.35zm-.4-.61-.37-.37 1.29-1.31.67.44-1.59 1.24zm-.49-.49-.49-.49.73-1.47 1.02.67-1.26 1.29zm-.62-.62-.17-.17h-.27l.23-1.87.93.61-.72 1.43zm.71 4.7 1.25 1.32-.39.6-1.22-1.56.36-.36zm.12-.12.24-.24 1.49.78-.5.76-1.23-1.3zm.37-.37.31-.31v-.11c.34.09 1.04.29 1.62.46l-.47.72-1.46-.76zm.31-1.69 1.76-.11.13.64-1.89-.07v-.46zm-1.88-4.68-.25 1.98h-.42V89.8l.61-.13.06.04zm-2.88.55.83 1.43h-.14l-.28.28c-.54-.47-1.25-1.08-1.47-1.3l.15-.22.91-.19zm-2.62 2.78 1.63.38v.48l-2-.23-.01-.04.38-.59zm.19 3.45 1.47-.68.41.41-1.35 1.38-.34-.23-.19-.88zm2.98 2.72.29-1.76h.45v1.94l-.35.07-.39-.25zm3.41-.37-.82-1.46.33-.33 1.24 1.59-.04.06-.71.14zm2.52-2.88c-.58-.17-1.35-.39-1.72-.49v-.46l1.93.07.09.43-.3.45z" fill="#4a221e" stroke-width="none" opacity="1"></path><path id="SvgjsPath10380" d="m118.39 91.91-.96-.29-.73.7.24.97.96.29.73-.7z" fill="#ffffff" stroke-width="none" opacity="1"></path><path id="SvgjsPath10381" d="m120.55 96.11-.59-.34-.59.34v.68l.59.34.59-.34z" fill="#ffffff" stroke-width="none" opacity="1"></path></g></g></g><g id="svga-group-eyesfront-right"><path id="SvgjsPath10301" d="M125 80.8h-11.2l-7.9 8.4v11.9l7.9 8.4H125l7.9-8.4V89.3l-7.9-8.5zm3 18.2-1.9 1.5s-15.6-.5-16.6-1c0 0 .5-5.6 1.8-7.4.2-.2 14.6.2 17.9.3L128 99z" fill="#f0c7b1" stroke-width="none" opacity="1"></path><path id="SvgjsPath10304" d="m110.2 95.1-.3 4.3 3.1.5.3-.5 2.3.8h-2.1l-.7 1.2-4.1-.1z" fill="#e1ac8f" stroke-width="none" opacity="1"></path><path id="SvgjsPath10305" d="m109.7 98.1 1.9-5.3h17.3l-.2 1.6 1.4-.5.6-1.9-21.2-.2.9.7-1.3 7.1z" fill="#000000" stroke-width="none" opacity="1"></path></g></g></g><g id="svga-group-facehighlight-single"></g><g id="svga-group-eyebrows-left-move" transform="matrix(1,0,0,1,0,0)"><g id="svga-group-eyebrows-left-rotate" transform="matrix(1,1.7453292519943295e-9,-1.7453292519943295e-9,1,1.4451326535436237e-7,-1.3849188462700113e-7)"><g id="svga-group-eyebrows-left"><path id="SvgjsPath10218" d="M74.2 77.6 71 79l-5 9 8.5-4.6 17.3 3.7.9-6z" fill="#2a232b" stroke-width="none" opacity="1"></path><path id="SvgjsPath10219" d="m87.9 84-1.2-4-1.7-.4 2.9 4.4zM73 78.2l5.6 4.6-4.4-5.2-1.2.6zm6.9.5 3.8 5-1.9-4.6-1.9-.4zm-11.7 5.4 2.7-1.5-2.1.5-.6 1zm14.7-4.8 1.7 1.9-.5-1.7-1.2-.2zm-12.4.7 3.8.8L71 79l-.5 1zm16.6.1 3.5 5.2-1.4-4.7-2.1-.5z" fill="#3a353a" stroke-width="none" opacity="1"></path></g></g></g><g id="svga-group-eyebrows-right-move" transform="matrix(1,0,0,1,0,0)"><g id="svga-group-eyebrows-right-rotate" transform="matrix(1,1.7453292519943295e-9,-1.7453292519943295e-9,1,1.4451326535436237e-7,-2.1057397248114285e-7)"><g id="svga-group-eyebrows-right"><path id="SvgjsPath10220" d="m107.3 81.1.9 6 17.3-3.7L134 88l-5-9-3.2-1.4z" fill="#2a232b" stroke-width="none" opacity="1"></path><path id="SvgjsPath10221" d="m115 79.6-1.7.3-1.2 4 2.9-4.3zm10.8-2-4.4 5.2 5.6-4.6-1.2-.6zm-7.6 1.5-1.9 4.6 3.8-5-1.9.4zm12.9 4-2.1-.5 2.7 1.5-.6-1zm-15.2-3.6-.5 1.7 1.7-1.9-1.2.2zM129 79l-3.2 1.8 3.8-.8-.6-1zm-18.2 1.5-1.4 4.7 3.5-5.2-2.1.5z" fill="#3a353a" stroke-width="none" opacity="1"></path></g></g></g><g id="svga-group-beardwrap"><g id="svga-group-beard-single-move" transform="matrix(1,0,0,1,0,0)"><g id="svga-group-beard-single" transform="matrix(0.8499994000000002,0,0,0.8499994000000002,15.052559981117227,23.032592587765464)"><path id="SvgjsPath10208" d="m83.1 148.8 8 11.7 9.1 1.6 9.3-2.3 8.1-11.6-1.6-1.9-8-1.3H91.9l-6.1 1.6z" fill="#2a232b" stroke-width="none" opacity="1"></path><path id="SvgjsPath10209" d="M116 146.3h-.2l-7.4 11.8-.7.2 2.5-10.5-4.2 11-2.3.7-.7-4.4-.4 4.7-1.6.5-1.9-8.2.2 8.1-3.1-1.4-3.6-11.3 1.6 10.4-1.5-.6-5.2-11.3-1.7.5-2.7 2.2 8 11.7 9 1.6 9.3-2.4 8.1-11.6-1.5-1.7zM96.7 145h-2.2c.7 2.6 3 11.1 3.1 11.7-.2-.6-.7-8.9-.9-11.7zm6.1 0h-1.7c.1 2.9.3 10.5.3 10.1 0-.5 1-7.5 1.4-10.1zm5.2 0h-2.2l-.6 10.3 3.3-10.2-.5-.1z" fill="#1b141c" stroke-width="none" opacity="1"></path></g></g></g><g id="svga-group-mustache-single-move" transform="matrix(1,0,0,1,0,0)"><g id="svga-group-mustache-single"></g></g><g id="svga-group-nose-single-move" transform="matrix(1,0,0,1,0,0)"><g id="svga-group-nose-single"><path id="SvgjsPath10417" d="M101.59 118.56H97.9l-.63-1.27-1.65.59-3.91.22-1.1-2.46-.04-5.18 2.16-3.09 1.99-.22 1.45-10 3.43-1.45 3.77 1.4 1.57 10.14 1.91.13 2.25 3.26-.17 5.39-1.23 2.08-3.74-.22-1.56-.59z" fill="#f0c7b1" stroke-width="none" opacity="1" transform="translate(0 1)"></path><path id="SvgjsPath10418" d="m96.79 92.85-2.33 14.06h-2.04l-2.52 3.79.39 6.11 1.55 1.94 3.78-.87-3.68-.39-.88-1.85-.09-5.04 1.94-2.72 3.58-.58-1.26-.97z" fill="#d19271" stroke-width="none" opacity="1" transform="translate(0 1)"></path><path id="SvgjsPath10419" d="m102.8 92.85 2.33 14.06h2.03l2.53 3.79-.39 6.11-1.55 1.94-3.79-.87 3.69-.39.87-1.85.1-5.04-1.94-2.72-3.59-.58 1.26-.97z" fill="#d19271" stroke-width="none" opacity="1" transform="translate(0 1)"></path><path id="SvgjsPath10420" d="m104.93 112.93-1.84 1.45-1.84 3.69h-2.91l-1.85-3.69-1.84-1.45-2.33 2.23 1.75 1.65 1.55-1.75 2.23 3.98h3.88l2.23-3.98 1.55 1.75 1.75-1.65z" fill="#d19271" stroke-width="none" opacity="1" transform="translate(0 1)"></path><path id="SvgjsPath10421" d="m100.46 93.5.25 14.54 3.96 1.27-3.57 4.98h-2.04l.38-21.17z" fill="#f8d5c3" stroke-width="none" opacity="1" transform="translate(0 1)"></path></g></g><g id="svga-group-hair-front"><path id="SvgjsPath10487" d="m61.1 99.3-6.5-10.9 2.3-22.2L66 48.3s22.2-16.2 22.5-16.7c.3-.5 4.6-9.6 4.6-9.6l.3 6.9 3.1-6 1.3-6.2 2.1 7 1 4.2 1.3-5.7 2.1-7.3 1 7 1.5-3.1 3.1 9.5 14.8 12.3 10.9 11.2 7 15.3 1.6 21.7-3.6 7.7-4.6-24.8-12.2-15.5-15.2 4.9H92.3l-14.5-6.2L65 69.6l-3.9 29.7z" fill="#2a232b" stroke-width="none" opacity="1"></path><path id="SvgjsPath10488" d="m58.5 83 5.1-25.5 7.5-10.1 5.9-7.2c-5.6 4.1-11.1 8.1-11.1 8.1l-9.1 17.9-2.3 22.2 5.8 9.8L58.5 83zm31.6-51 3-10.1s-4.3 9.1-4.6 9.6c-.1.1-1.1.9-2.7 2.1l4.3-1.6zm4.2 6.9 3.2-15.2s-4.9 10.5-5.3 11.1-15.4 13-15.4 13L64 65.8 62.2 79l.8 4.9 2-14.3L77.5 53l16.8-14.1zm-9.8 18.6 13.9-10.9.8-15.4S95.4 43.5 95 44.4c-.4.6-10.1 8.4-14 11.6l3.5 1.5zm6.8 2.9.9.4H97l1.4-12.6s-1.4 3-1.6 4c-.2.7-3.3 5.1-5.5 8.2zm17.5.4.2-.1-7-19 1.8 13-.9 6.1h5.9zm6.5-2.1-3.2-9.5-6.9-11.7-1-15.6s-1.2 15.6-1 16.2c.2.5 7.9 14.5 11.4 20.8l.7-.2zm-2.4-19.8-5.1-11.3.4 10.1 7.9 10.5s3.1 5.8 4.5 8.8l3.2-1-10.9-17.1zm8.1 3.6 8.3 13.4 5.3 9.9-4.2-14.6-8.5-10.9-1.8-3.8-7.8-6.4 8.7 12.4zm23.3 46-2.4-4.5-5.9-21.9.1 9.2 4.6 24.8 3.6-7.6z" fill="#221b23" stroke-width="none" opacity="1"></path></g><g id="svga-group-glasses-single-move" transform="matrix(1,0,0,1,0,0)"><g id="svga-group-glasses-single"><path id="SvgjsPath10455" d="M72.3 101.7 85 91.9l.1.2-12.6 9.8-.2-.2zm6.3-1-.2-.2 9.8-7.6.2.2-9.8 7.6zm-7.8 0-.2-.2 9.9-7.6.1.2-9.8 7.6zm43 1 12.6-9.8.1.2-12.6 9.8-.1-.2zm6.3-1-.2-.2 9.8-7.6.2.2-9.8 7.6zm-7.8 0-.2-.2 9.8-7.6.2.2-9.8 7.6z" fill="#ffffff" stroke-width="none" opacity="0.5"></path><path id="SvgjsPath10456" d="M91.3 102.5H68l-1.1-1.2v-8.6l1.1-1.1h24.3l1.2 1.1v7.6l-2.2 2.2zm18 0h23.2l1.1-1.1v-8.7l-1.1-1.1h-24.3l-1.1 1.1v7.6l2.2 2.2z" fill="#ffffff" stroke-width="none" opacity="0.37"></path><path id="SvgjsPath10457" d="M94 94.9c.4 0 .8 1 .8 2.3s-.4 2.3-.8 2.3-.8-1-.8-2.3.4-2.3.8-2.3zm12.5 0c.4 0 .8 1 .8 2.3s-.4 2.3-.8 2.3-.8-1-.8-2.3.4-2.3.8-2.3z" fill="#939393" stroke-width="none" opacity="1"></path><path id="SvgjsPath10458" d="m93.5 94.1 6.8-.6 6.8.6v1.3l-6.8-.6-6.8.6z" fill="#070201" stroke-width="none" opacity="1"></path><path id="SvgjsPath10459" d="M92.3 91.2H65.2v1.9h1.3v8.3l1.5 1.5h23.3l2.6-2.6v-7.6l-1.6-1.5zm.8 9.1-1.8 1.8H68l-.7-.7v-8.7l.7-.7h24.3l.7.7.1 7.6zm42.2-9.1h-27.2l-1.5 1.5v7.6l2.6 2.6h23.3l1.5-1.5v-8.3h1.3v-1.9zm-2.1 10.1-.7.7h-23.3l-1.8-1.8v-7.6l.7-.7h24.3l.7.7.1 8.7z" fill="#26120b" stroke-width="none" opacity="1"></path></g></g></g></g></g><rect id="svga-credit-rect" width="200" height="15" x="0" y="185" fill="#ecf0f1" opacity="0.5" style="display: none;"></rect><text id="svga-credit-text" font-family="Avenir Next, Roboto, Helvetica, Arial, sans-serif" font-size="10px" text-anchor="start" font-weight="400" size="10px" anchor="start" weight="400" fill="#333333" x="33.40447998046875" y="182.60824704170227" style="display: none;"><tspan id="SvgjsTspan10207" dy="13" x="33.40447998046875">Created on AvatarMaker.com</tspan></text></g><defs id="SvgjsDefs10154"></defs></svg>